<svg width="63" height="56" viewBox="0 0 63 56" fill="none" xmlns="http://www.w3.org/2000/svg">
<path d="M55.4416 7.48548C54.0583 6.10153 52.4159 5.00369 50.6082 4.25466C48.8005 3.50564 46.8629 3.12012 44.9062 3.12012C42.9494 3.12012 41.0119 3.50564 39.2042 4.25466C37.3965 5.00369 35.754 6.10153 34.3707 7.48548L31.4999 10.3563L28.6291 7.48548C25.8349 4.69131 22.0452 3.12157 18.0937 3.12157C14.1421 3.12157 10.3524 4.69131 7.55825 7.48548C4.76408 10.2796 3.19434 14.0693 3.19434 18.0209C3.19434 21.9724 4.76408 25.7621 7.55825 28.5563L10.4291 31.4271L31.4999 52.498L52.5707 31.4271L55.4416 28.5563C56.8255 27.173 57.9234 25.5306 58.6724 23.7229C59.4214 21.9152 59.8069 19.9776 59.8069 18.0209C59.8069 16.0642 59.4214 14.1266 58.6724 12.3189C57.9234 10.5112 56.8255 8.86878 55.4416 7.48548Z" stroke="#FE1B1B" stroke-width="5.41667" stroke-linecap="round" stroke-linejoin="round"/>
</svg>
