<svg width="90" height="90" viewBox="0 0 90 90" fill="none" xmlns="http://www.w3.org/2000/svg">
<path d="M45 82.5C65.7107 82.5 82.5 65.7107 82.5 45C82.5 24.2893 65.7107 7.5 45 7.5C24.2893 7.5 7.5 24.2893 7.5 45C7.5 65.7107 24.2893 82.5 45 82.5Z" stroke="#FF9F01" stroke-width="7.5" stroke-linecap="round" stroke-linejoin="round"/>
<path d="M34.0874 33.7502C34.969 31.2439 36.7092 29.1306 38.9997 27.7844C41.2902 26.4383 43.9833 25.9462 46.6018 26.3954C49.2204 26.8445 51.5955 28.2059 53.3064 30.2384C55.0174 32.2709 55.9539 34.8434 55.9499 37.5002C55.9499 45.0002 44.6999 48.7502 44.6999 48.7502" stroke="#FF9F01" stroke-width="7.5" stroke-linecap="round" stroke-linejoin="round"/>
<path d="M45 63.75H45.0375" stroke="#FF9F01" stroke-width="7.5" stroke-linecap="round" stroke-linejoin="round"/>
</svg>
